# xmcd
#
# Track frame offsets: 
#        183
#        55035
#        91258
#        116358
#        230808
#        275158
#
# Disc length: 4272 seconds
#
# Revision: 5
# Processed by: cddbd v1.5.2PL0 Copyright (c) Steve Scherf et al.
# Submitted via: ExactAudioCopy v0.99pb4
#
DISCID=4d10ae06
DTITLE=Kyung Wha Chung (violin) and Others - The Great Violin Concertos 
DTITLE=[CD1]
DYEAR=1996
DGENRE=Classical
TTITLE0=Mendelssonhn Violin Concerto in E minor, op.64 - I. Allegro mo
TTITLE0=lto appassionato - 
TTITLE1=Mendelssonhn Violin Concerto in E minor, op.64 - II. Andante -
TTITLE1=
TTITLE2=Mendelssonhn Violin Concerto in E minor, op.64 - III. Allegret
TTITLE2=to non troppo - Allegro molto vivace
TTITLE3=Beethoven Violin Concerto in D major, op.61 - I. Allegro ma no
TTITLE3=n troppo
TTITLE4=Beethoven Violin Concerto in D major, op.61 - II. Larghetto - 
TTITLE5=Beethoven Violin Concerto in D major, op.61 - III. Rondo. Alle
TTITLE5=gro
EXTD=Mendelssohn  1981\nBeethoven  1979
EXTT0=
EXTT1=
EXTT2=
EXTT3=
EXTT4=
EXTT5=
PLAYORDER=
